<?xml version="1.0" encoding="UTF-8" standalone="no"?> <svg xmlns="http://www.w3.org/2000/svg" xmlns:xlink="http://www.w3.org/1999/xlink" xmlns:serif="http://www.serif.com/" width="100%" height="100%" viewBox="0 0 1800 700" version="1.1" xml:space="preserve" style="fill-rule:evenodd;clip-rule:evenodd;stroke-linejoin:round;stroke-miterlimit:2;"> <g id="Ebene-1" serif:id="Ebene 1" transform="matrix(5.13201,0,0,5.13201,-1260.3,-1177.49)"> <g transform="matrix(1,0,0,1,296.672,318.159)"> <path d="M0,-62.015C-0.039,-61.429 -0.127,-60.824 -0.263,-60.197C-0.336,-59.505 -0.458,-58.776 -0.628,-58.008C-0.799,-57.237 -0.956,-56.399 -1.094,-55.494C-1.164,-55.005 -1.234,-54.534 -1.303,-54.08C-1.374,-53.625 -1.444,-53.153 -1.513,-52.664C-1.583,-52.175 -1.654,-51.702 -1.722,-51.246C-1.792,-50.79 -1.862,-50.352 -1.93,-49.931C-2,-49.439 -2.086,-48.945 -2.189,-48.451C-2.291,-47.954 -2.377,-47.459 -2.447,-46.968C-2.517,-46.474 -2.587,-45.981 -2.656,-45.489C-2.726,-44.994 -2.797,-44.5 -2.865,-44.007C-3.004,-43.087 -3.16,-42.147 -3.33,-41.185C-3.501,-40.223 -3.657,-39.279 -3.794,-38.354C-3.933,-37.428 -4.071,-36.536 -4.208,-35.678C-4.345,-34.819 -4.482,-33.959 -4.619,-33.098C-4.758,-32.236 -4.877,-31.411 -4.981,-30.623C-5.085,-29.834 -5.205,-29.114 -5.339,-28.457C-5.411,-27.814 -5.481,-27.204 -5.55,-26.631C-5.62,-26.056 -5.689,-25.516 -5.758,-25.012C-5.627,-25.18 -5.48,-25.369 -5.316,-25.578C-5.154,-25.787 -5.007,-25.975 -4.875,-26.143C-4.745,-26.309 -4.598,-26.497 -4.434,-26.705C-4.271,-26.912 -4.124,-27.135 -3.991,-27.371C-3.86,-27.536 -3.713,-27.722 -3.55,-27.929C-3.387,-28.134 -3.206,-28.362 -3.009,-28.608C-2.878,-28.842 -2.73,-29.078 -2.565,-29.318C-2.403,-29.557 -2.221,-29.799 -2.025,-30.043C-1.696,-30.588 -1.351,-31.135 -0.988,-31.682C-0.627,-32.229 -0.248,-32.778 0.147,-33.326C0.344,-33.633 0.542,-33.923 0.74,-34.197C0.937,-34.47 1.135,-34.759 1.333,-35.065C1.465,-35.358 1.631,-35.659 1.829,-35.963C2.027,-36.266 2.226,-36.57 2.423,-36.873C2.754,-37.468 3.103,-38.062 3.467,-38.659C3.83,-39.253 4.178,-39.843 4.511,-40.431C4.843,-41.015 5.142,-41.611 5.41,-42.217C5.677,-42.822 5.944,-43.41 6.211,-43.979C6.345,-44.33 6.497,-44.7 6.665,-45.088C6.831,-45.474 6.983,-45.877 7.119,-46.292C7.254,-46.708 7.405,-47.125 7.574,-47.543C7.741,-47.961 7.861,-48.372 7.932,-48.779C7.998,-48.985 8.049,-49.172 8.085,-49.343C8.12,-49.511 8.171,-49.7 8.239,-49.906C8.24,-50.038 8.258,-50.206 8.294,-50.41C8.329,-50.612 8.38,-50.816 8.448,-51.021C8.451,-51.22 8.469,-51.421 8.504,-51.623C8.54,-51.825 8.559,-52.026 8.561,-52.224C8.627,-52.363 8.663,-52.532 8.666,-52.731C8.668,-52.93 8.67,-53.129 8.673,-53.328C8.679,-53.858 8.637,-54.4 8.545,-54.956C8.455,-55.51 8.345,-56.015 8.221,-56.471C8.032,-56.986 7.825,-57.485 7.603,-57.968C7.379,-58.45 7.106,-58.913 6.786,-59.359C6.463,-59.803 6.075,-60.212 5.624,-60.586C5.17,-60.959 4.683,-61.332 4.165,-61.705C3.58,-62.007 2.961,-62.308 2.311,-62.612C1.66,-62.913 0.944,-63.181 0.161,-63.412C0.162,-63.515 0.163,-63.618 0.164,-63.721C0.093,-63.168 0.038,-62.599 0,-62.015M-21.302,-63.483C-14.25,-63.897 -7.189,-64.28 -0.121,-64.632C-3.857,-67.054 -7.599,-69.584 -11.35,-72.239C-11.351,-72.095 -11.288,-72.006 -11.155,-71.974C-11.024,-71.94 -10.829,-71.963 -10.564,-72.04C-10.237,-72.118 -9.86,-72.216 -9.433,-72.331C-9.006,-72.447 -8.497,-72.58 -7.906,-72.734C-7.313,-72.885 -6.723,-73.036 -6.131,-73.187C-5.541,-73.337 -4.917,-73.486 -4.259,-73.636C-3.603,-73.785 -2.929,-73.95 -2.238,-74.132C-1.548,-74.312 -0.842,-74.474 -0.118,-74.62C-0.054,-74.62 0.013,-74.621 0.079,-74.622L0.179,-74.726C0.211,-74.726 0.244,-74.727 0.276,-74.727C0.605,-74.797 0.901,-74.869 1.165,-74.94C1.427,-75.01 1.69,-75.08 1.954,-75.151C2.281,-75.154 2.577,-75.189 2.841,-75.26C3.103,-75.328 3.367,-75.399 3.63,-75.468C4.156,-75.606 4.699,-75.744 5.259,-75.882C5.817,-76.018 6.361,-76.154 6.889,-76.29C7.151,-76.357 7.398,-76.408 7.628,-76.442C7.858,-76.475 8.073,-76.526 8.271,-76.594C8.467,-76.594 8.665,-76.609 8.862,-76.644C9.06,-76.677 9.257,-76.727 9.455,-76.794C9.785,-76.926 10.064,-77.008 10.295,-77.041C10.525,-77.074 10.705,-77.123 10.838,-77.19C12.536,-76.53 14.152,-75.834 15.684,-75.103C17.215,-74.37 18.6,-73.665 19.837,-72.984C21.138,-72.239 22.292,-71.503 23.298,-70.771C24.304,-70.039 25.194,-69.28 25.969,-68.495C26.745,-67.709 27.421,-66.911 27.999,-66.099C28.576,-65.286 29.055,-64.46 29.436,-63.617C29.814,-62.712 30.096,-61.807 30.278,-60.898C30.46,-59.989 30.544,-59.045 30.529,-58.066C30.513,-57.085 30.399,-56.085 30.186,-55.058C29.974,-54.033 29.694,-52.953 29.35,-51.819C28.938,-50.679 28.461,-49.528 27.92,-48.365C27.377,-47.202 26.738,-45.991 26,-44.73C25.26,-43.467 24.456,-42.157 23.586,-40.795C22.716,-39.432 21.78,-38.017 20.78,-36.546C19.78,-35.073 18.713,-33.543 17.584,-31.952C16.453,-30.358 15.258,-28.703 14,-26.979C14.322,-26.78 14.66,-26.57 15.015,-26.347C15.369,-26.124 15.708,-25.913 16.031,-25.719C16.159,-25.615 16.305,-25.515 16.466,-25.417C16.626,-25.319 16.806,-25.257 17.001,-25.231C17.129,-25.127 17.273,-25.027 17.436,-24.932C17.597,-24.833 17.741,-24.734 17.871,-24.632C18.193,-24.438 18.466,-24.252 18.693,-24.074C18.917,-23.894 19.159,-23.735 19.418,-23.596C19.547,-23.493 19.659,-23.389 19.756,-23.282C19.852,-23.172 19.963,-23.099 20.095,-23.063C20.157,-22.947 20.253,-22.856 20.383,-22.787C20.512,-22.718 20.608,-22.626 20.672,-22.513C20.8,-22.348 20.944,-22.188 21.105,-22.031C21.265,-21.873 21.377,-21.706 21.44,-21.53C21.567,-21.367 21.68,-21.201 21.774,-21.031C21.869,-20.862 21.948,-20.689 22.011,-20.514C22.01,-20.45 22.023,-20.375 22.056,-20.287C22.087,-20.2 22.135,-20.099 22.198,-19.987C22.197,-19.923 22.211,-19.848 22.244,-19.761C22.275,-19.673 22.322,-19.573 22.386,-19.46C22.384,-19.334 22.382,-19.225 22.381,-19.13C22.38,-19.036 22.378,-18.926 22.376,-18.8C22.375,-18.737 22.375,-18.69 22.374,-18.659C22.374,-18.626 22.405,-18.586 22.47,-18.538C22.469,-18.475 22.469,-18.427 22.468,-18.397C22.467,-18.364 22.467,-18.317 22.466,-18.255C22.459,-17.815 22.386,-17.314 22.248,-16.752C22.108,-16.189 21.938,-15.603 21.733,-14.992C21.529,-14.381 21.259,-13.739 20.924,-13.064C20.588,-12.387 20.188,-11.679 19.723,-10.936C19.256,-10.192 18.757,-9.388 18.226,-8.524C17.694,-7.66 17.063,-6.717 16.336,-5.694C15.674,-4.686 14.913,-3.63 14.058,-2.519C13.201,-1.408 12.312,-0.292 11.393,0.828C11.133,0.905 10.873,0.982 10.615,1.06C10.355,1.137 10.032,1.235 9.643,1.352C9.254,1.469 8.8,1.608 8.282,1.766C7.763,1.925 7.215,2.094 6.632,2.276C6.051,2.457 5.469,2.639 4.887,2.823C4.306,3.006 3.708,3.197 3.095,3.394C2.48,3.591 1.852,3.829 1.208,4.107C1.143,4.129 1.077,4.15 1.014,4.171C0.949,4.192 0.883,4.214 0.82,4.234L0.724,4.266C0.659,4.288 0.594,4.308 0.531,4.33C0.466,4.351 0.4,4.373 0.337,4.393C-0.308,4.606 -0.919,4.809 -1.498,5.004C-2.077,5.197 -2.655,5.392 -3.234,5.589C-3.813,5.787 -4.376,5.98 -4.92,6.168C-5.467,6.356 -5.996,6.541 -6.508,6.719C-7.022,6.899 -7.503,7.069 -7.95,7.227C-8.4,7.386 -8.784,7.523 -9.104,7.638C-9.424,7.753 -9.696,7.85 -9.919,7.931C-10.144,8.011 -10.319,8.075 -10.446,8.121C-9.673,6.916 -8.913,5.673 -8.168,4.393C-7.424,3.116 -6.725,1.917 -6.074,0.796C-5.359,-0.414 -4.676,-1.57 -4.023,-2.673C-3.372,-3.774 -2.751,-4.824 -2.163,-5.822C-1.574,-6.82 -1.05,-7.774 -0.589,-8.689C-0.13,-9.602 0.234,-10.434 0.5,-11.187C0.831,-12.024 1.063,-12.797 1.202,-13.513C1.338,-14.226 1.411,-14.924 1.418,-15.605C1.42,-15.81 1.405,-16.01 1.375,-16.206C1.345,-16.403 1.331,-16.603 1.333,-16.807C1.27,-16.927 1.206,-17.082 1.145,-17.272C1.081,-17.46 1.019,-17.65 0.956,-17.839C0.766,-18.133 0.559,-18.442 0.336,-18.766C0.113,-19.087 -0.159,-19.383 -0.478,-19.652C-0.671,-19.744 -0.864,-19.852 -1.056,-19.981C-1.249,-20.107 -1.441,-20.252 -1.633,-20.414C-1.826,-20.507 -2.052,-20.61 -2.308,-20.724C-2.566,-20.836 -2.824,-20.932 -3.081,-21.013C-3.338,-21.092 -3.612,-21.167 -3.901,-21.241C-4.192,-21.313 -4.499,-21.417 -4.819,-21.553C-5.142,-21.618 -5.463,-21.683 -5.786,-21.751C-6.108,-21.816 -6.462,-21.875 -6.848,-21.929C-8.705,-11.905 -10.544,-1.66 -12.364,8.821C-17.792,10.816 -23.188,12.934 -28.547,15.175C-26.214,-11.874 -23.793,-38.074 -21.302,-63.483" style="fill-rule:nonzero;"></path> </g> <g transform="matrix(1,0,0,1,332.913,301.487)"> <path d="M0,-48.053C7.229,-48.727 14.464,-49.338 21.702,-49.895C21.7,-49.781 21.681,-49.598 21.644,-49.343C21.606,-49.089 21.519,-48.733 21.38,-48.278C21.309,-47.88 21.202,-47.341 21.06,-46.658C20.916,-45.976 20.772,-45.178 20.627,-44.269C20.48,-43.358 20.318,-42.432 20.14,-41.49C19.959,-40.547 19.765,-39.588 19.551,-38.613C19.337,-37.581 19.14,-36.549 18.959,-35.515C18.778,-34.482 18.613,-33.391 18.464,-32.244C18.396,-32.182 18.345,-32.108 18.312,-32.02C18.277,-31.932 18.26,-31.831 18.258,-31.718C18.257,-31.66 18.256,-31.603 18.255,-31.547C18.254,-31.49 18.253,-31.432 18.252,-31.377C18.185,-31.314 18.151,-31.241 18.15,-31.156C18.148,-31.07 18.147,-30.97 18.146,-30.857L18.14,-30.515C17.996,-29.764 17.853,-29 17.709,-28.22C17.563,-27.439 17.42,-26.671 17.276,-25.918C17.132,-25.164 17.006,-24.425 16.896,-23.702C16.786,-22.978 16.658,-22.267 16.516,-21.568C16.438,-20.818 16.345,-20.123 16.236,-19.483C16.126,-18.843 16.001,-18.229 15.86,-17.641C15.786,-17.061 15.71,-16.51 15.637,-15.987C15.562,-15.463 15.488,-14.968 15.416,-14.502C16.359,-15.935 17.253,-17.308 18.098,-18.624C18.942,-19.938 19.769,-21.171 20.577,-22.323C21.387,-23.531 22.195,-24.688 23.003,-25.797C23.811,-26.905 24.583,-27.932 25.324,-28.882C26.064,-29.886 26.704,-30.836 27.246,-31.734C27.785,-32.632 28.226,-33.532 28.571,-34.44C28.912,-35.291 29.188,-36.136 29.398,-36.977C29.609,-37.817 29.72,-38.623 29.731,-39.397C29.733,-39.508 29.734,-39.605 29.735,-39.688C29.737,-39.77 29.738,-39.839 29.739,-39.895C29.74,-39.949 29.74,-39.991 29.74,-40.019C29.741,-40.047 29.741,-40.088 29.742,-40.144C29.676,-40.195 29.646,-40.249 29.646,-40.305C29.647,-40.36 29.647,-40.415 29.648,-40.471C29.649,-40.526 29.65,-40.567 29.65,-40.595C29.65,-40.623 29.651,-40.664 29.652,-40.72C29.586,-40.771 29.554,-40.811 29.555,-40.84C29.555,-40.867 29.556,-40.909 29.557,-40.965C29.558,-41.019 29.558,-41.06 29.559,-41.089C29.559,-41.116 29.559,-41.158 29.56,-41.214C29.495,-41.265 29.462,-41.305 29.463,-41.334C29.464,-41.361 29.464,-41.402 29.465,-41.458C29.401,-41.565 29.353,-41.66 29.321,-41.742C29.289,-41.824 29.274,-41.892 29.275,-41.948C29.21,-42.055 29.163,-42.15 29.131,-42.232C29.099,-42.314 29.084,-42.409 29.086,-42.521C29.021,-42.628 28.974,-42.723 28.943,-42.805C28.91,-42.887 28.895,-42.955 28.896,-43.011C28.832,-43.119 28.784,-43.214 28.752,-43.296C28.719,-43.378 28.671,-43.445 28.607,-43.498C28.35,-43.931 28.043,-44.391 27.69,-44.878C27.335,-45.365 26.899,-45.851 26.38,-46.335C25.926,-46.822 25.375,-47.306 24.726,-47.79C24.075,-48.274 23.393,-48.759 22.677,-49.245C21.962,-49.732 21.165,-50.232 20.287,-50.749C19.407,-51.264 18.445,-51.796 17.404,-52.345C16.362,-52.893 15.254,-53.46 14.082,-54.045C12.909,-54.629 11.67,-55.203 10.367,-55.77C10.629,-55.83 10.893,-55.892 11.158,-55.954C11.487,-56.074 11.851,-56.18 12.246,-56.271C12.641,-56.362 13.136,-56.468 13.729,-56.59C14.256,-56.71 14.816,-56.845 15.41,-56.994C16.003,-57.141 16.629,-57.275 17.288,-57.395C17.88,-57.513 18.525,-57.66 19.217,-57.835C19.908,-58.009 20.584,-58.183 21.244,-58.355C21.375,-58.355 21.506,-58.369 21.638,-58.399C21.77,-58.427 21.936,-58.47 22.133,-58.528C22.263,-58.528 22.395,-58.542 22.528,-58.572C22.659,-58.6 22.791,-58.642 22.924,-58.699C23.186,-58.756 23.468,-58.828 23.764,-58.913C24.062,-58.997 24.34,-59.068 24.605,-59.125C24.867,-59.18 25.132,-59.238 25.396,-59.294C25.658,-59.349 25.923,-59.406 26.187,-59.463C26.449,-59.518 26.696,-59.574 26.927,-59.631C27.158,-59.686 27.405,-59.742 27.669,-59.798C27.932,-59.852 28.179,-59.908 28.41,-59.965C28.641,-60.019 28.855,-60.075 29.053,-60.131C29.25,-60.13 29.431,-60.157 29.596,-60.213C29.76,-60.267 29.942,-60.323 30.14,-60.379C30.469,-60.489 30.767,-60.556 31.029,-60.584C31.292,-60.611 31.523,-60.652 31.721,-60.707C33.615,-60.096 35.38,-59.468 37.014,-58.818C38.646,-58.167 40.149,-57.495 41.52,-56.803C42.89,-56.108 44.098,-55.406 45.141,-54.692C46.183,-53.977 47.097,-53.252 47.877,-52.515C48.268,-52.146 48.609,-51.764 48.9,-51.369C49.192,-50.974 49.5,-50.592 49.825,-50.226C50.083,-49.803 50.325,-49.409 50.553,-49.042C50.778,-48.674 50.989,-48.28 51.182,-47.86C51.569,-47.072 51.857,-46.269 52.046,-45.452C52.235,-44.635 52.325,-43.804 52.316,-42.958C52.315,-42.905 52.315,-42.851 52.314,-42.8C52.314,-42.746 52.313,-42.693 52.313,-42.64C52.313,-42.587 52.312,-42.534 52.312,-42.482C52.311,-42.428 52.31,-42.375 52.31,-42.323C52.31,-42.27 52.309,-42.217 52.308,-42.164C52.308,-42.138 52.308,-42.111 52.307,-42.085C52.24,-42.03 52.207,-41.976 52.207,-41.924C52.206,-41.897 52.206,-41.87 52.206,-41.844C52.132,-41.1 52.008,-40.357 51.835,-39.611C51.663,-38.863 51.44,-38.115 51.168,-37.365C50.897,-36.666 50.575,-35.952 50.204,-35.221C49.832,-34.491 49.411,-33.743 48.94,-32.979C48.469,-32.266 48.015,-31.553 47.578,-30.841C47.139,-30.126 46.652,-29.435 46.116,-28.765C45.847,-28.431 45.578,-28.108 45.311,-27.8C45.042,-27.49 44.807,-27.169 44.604,-26.836C44.336,-26.552 44.067,-26.254 43.799,-25.944C43.531,-25.632 43.261,-25.333 42.995,-25.048C42.391,-24.365 41.803,-23.72 41.234,-23.115C40.664,-22.51 40.11,-21.943 39.575,-21.416C39.038,-20.889 38.52,-20.388 38.017,-19.915C37.515,-19.44 37.028,-18.992 36.561,-18.573C36.092,-18.151 35.656,-17.773 35.255,-17.437C34.853,-17.101 34.553,-16.842 34.351,-16.659C34.083,-16.416 33.849,-16.202 33.648,-16.02C38.06,-10.096 42.495,-4.307 46.956,1.416C39.65,2.724 32.357,4.248 25.087,6.007C21.564,0.59 18.058,-4.935 14.563,-10.611C13.144,-4.256 11.723,2.173 10.302,8.68C4.496,9.872 -1.291,11.197 -7.054,12.654C-4.708,-8.001 -2.354,-28.224 0,-48.053" style="fill-rule:nonzero;"></path> </g> <g transform="matrix(1,0,0,1,411.848,249.21)"> <path d="M0,46.229C0.67,45.364 1.34,44.463 2.01,43.525C2.678,42.639 3.315,41.729 3.917,40.796C4.519,39.862 5.085,38.906 5.621,37.924C6.155,36.943 6.654,35.963 7.122,34.983C7.588,34.005 8.021,33.026 8.42,32.048C8.753,31.072 9.069,30.081 9.368,29.078C9.667,28.075 9.916,27.086 10.115,26.109L10.115,25.955C10.115,25.904 10.147,25.827 10.213,25.724C10.214,25.673 10.214,25.621 10.213,25.569C10.213,25.519 10.214,25.466 10.213,25.415C10.214,25.364 10.214,25.312 10.213,25.261C10.213,25.21 10.247,25.158 10.313,25.106L10.313,24.566C10.313,24.516 10.346,24.464 10.413,24.413L10.413,23.95C10.413,23.899 10.445,23.822 10.512,23.718L10.512,23.564C10.511,23.514 10.512,23.462 10.512,23.41L10.512,23.063C10.512,22.935 10.544,22.819 10.611,22.716C10.611,22.613 10.612,22.498 10.611,22.369C10.611,22.241 10.612,22.125 10.611,22.021L10.611,21.675C10.611,21.547 10.643,21.431 10.71,21.328L10.71,20.98C10.71,20.853 10.709,20.737 10.71,20.633C10.709,19.451 10.609,18.281 10.41,17.123C10.21,15.966 9.946,14.821 9.615,13.689C9.218,12.558 8.773,11.438 8.277,10.332C7.782,9.226 7.171,8.132 6.447,7.052C5.789,5.972 4.966,4.93 3.978,3.928C2.992,2.925 1.907,1.935 0.723,0.958C-0.459,0.031 -1.756,-0.869 -3.167,-1.746C-4.58,-2.621 -6.138,-3.472 -7.842,-4.3C-7.513,-4.351 -7.15,-4.404 -6.756,-4.456C-6.361,-4.559 -5.868,-4.65 -5.276,-4.728C-4.684,-4.805 -3.993,-4.921 -3.204,-5.076C-2.415,-5.178 -1.593,-5.293 -0.738,-5.422C0.116,-5.549 0.971,-5.69 1.827,-5.843C2.746,-5.997 3.666,-6.149 4.586,-6.302C5.506,-6.454 6.459,-6.606 7.445,-6.758L7.642,-6.758C7.707,-6.758 7.773,-6.757 7.839,-6.757C7.903,-6.757 7.97,-6.769 8.037,-6.795C8.101,-6.821 8.167,-6.859 8.234,-6.911C8.298,-6.911 8.364,-6.911 8.43,-6.91C8.562,-6.91 8.66,-6.935 8.727,-6.986L8.923,-6.986C8.988,-6.986 9.054,-6.986 9.12,-6.985C9.25,-6.985 9.382,-6.997 9.515,-7.023C9.645,-7.048 9.776,-7.086 9.909,-7.138C10.04,-7.138 10.17,-7.149 10.302,-7.175C10.433,-7.2 10.598,-7.238 10.794,-7.29C10.925,-7.289 11.056,-7.289 11.189,-7.289C11.32,-7.288 11.452,-7.313 11.583,-7.365C11.713,-7.364 11.845,-7.376 11.978,-7.402C12.108,-7.427 12.239,-7.465 12.372,-7.517C12.633,-7.567 12.896,-7.604 13.16,-7.63C13.421,-7.655 13.684,-7.693 13.947,-7.744C14.208,-7.794 14.473,-7.832 14.735,-7.857C14.997,-7.882 15.26,-7.92 15.523,-7.971C16.047,-7.609 16.575,-7.235 17.101,-6.847C17.628,-6.459 18.154,-6.084 18.681,-5.722C19.142,-5.308 19.604,-4.919 20.066,-4.558C20.525,-4.194 20.988,-3.806 21.451,-3.392C21.846,-3.028 22.242,-2.64 22.639,-2.225C23.035,-1.81 23.431,-1.42 23.829,-1.057C24.225,-0.641 24.588,-0.239 24.919,0.151C25.25,0.541 25.581,0.944 25.914,1.36C26.511,2.193 27.059,3.013 27.557,3.82C28.057,4.628 28.539,5.422 29.005,6.205C29.205,6.571 29.405,6.962 29.606,7.379C29.806,7.797 29.972,8.188 30.108,8.553C30.309,8.972 30.476,9.375 30.611,9.767C30.746,10.157 30.879,10.562 31.016,10.979C31.017,11.135 31.033,11.291 31.068,11.447C31.102,11.603 31.152,11.734 31.219,11.839C31.22,11.995 31.238,12.15 31.272,12.307C31.306,12.463 31.356,12.62 31.424,12.777C31.491,13.089 31.542,13.39 31.579,13.675C31.612,13.961 31.665,14.235 31.733,14.495C31.8,14.808 31.852,15.121 31.888,15.433C31.923,15.745 31.942,16.031 31.944,16.29L31.947,16.757C31.948,16.913 31.981,17.044 32.049,17.149C32.049,17.305 32.05,17.449 32.052,17.577C32.053,17.708 32.054,17.85 32.055,18.006C32.063,19.2 32.004,20.378 31.88,21.542C31.756,22.706 31.565,23.855 31.308,24.988C31.05,26.121 30.709,27.238 30.286,28.338C29.86,29.439 29.386,30.524 28.862,31.594C28.335,32.664 27.794,33.707 27.235,34.723C26.674,35.74 26.099,36.703 25.504,37.614C24.909,38.526 24.314,39.412 23.717,40.272C23.123,41.133 22.492,41.967 21.829,42.773C21.165,43.582 20.516,44.364 19.885,45.123C19.252,45.881 18.637,46.59 18.039,47.247C17.439,47.905 16.839,48.512 16.239,49.068C15.638,49.626 15.07,50.132 14.537,50.589C14.001,51.098 13.534,51.517 13.133,51.848C12.733,52.18 12.397,52.473 12.129,52.728C11.863,52.933 11.594,53.111 11.328,53.264C10.859,53.262 10.423,53.261 10.022,53.261C9.619,53.261 9.101,53.261 8.466,53.263C7.828,53.265 7.109,53.269 6.307,53.276C5.435,53.284 4.582,53.293 3.745,53.306C2.908,53.319 2.02,53.335 1.084,53.356C0.213,53.375 -0.708,53.397 -1.677,53.425C-2.648,53.453 -3.602,53.484 -4.539,53.517C-5.207,53.541 -5.844,53.566 -6.445,53.59C-7.048,53.615 -7.649,53.641 -8.252,53.668C-8.854,53.696 -9.456,53.724 -10.058,53.754C-10.66,53.784 -11.262,53.815 -11.864,53.848C-12.466,53.88 -13.035,53.913 -13.569,53.944C-14.105,53.976 -14.607,54.006 -15.074,54.036C-15.542,54.064 -15.993,54.093 -16.428,54.122C-16.863,54.151 -17.248,54.176 -17.58,54.2C-17.847,54.01 -18.128,53.767 -18.426,53.474C-18.725,53.182 -19.007,52.887 -19.271,52.592C-19.535,52.297 -19.799,52.001 -20.063,51.707C-20.329,51.411 -20.559,51.087 -20.755,50.734C-21.021,50.439 -21.268,50.142 -21.498,49.844C-21.729,49.546 -21.941,49.246 -22.139,48.945C-22.336,48.645 -22.533,48.332 -22.73,48.003C-22.927,47.677 -23.09,47.333 -23.22,46.975C-23.549,46.42 -23.858,45.851 -24.152,45.266C-24.446,44.682 -24.69,44.107 -24.884,43.54C-25.077,42.974 -25.255,42.394 -25.415,41.797C-25.576,41.203 -25.719,40.619 -25.846,40.046C-25.975,39.475 -26.083,38.888 -26.176,38.286C-26.27,37.686 -26.348,37.122 -26.408,36.597C-26.405,36.333 -26.419,36.056 -26.45,35.767C-26.48,35.479 -26.493,35.175 -26.49,34.858C-26.487,34.594 -26.484,34.316 -26.481,34.025C-26.478,33.734 -26.475,33.457 -26.472,33.192C-26.462,32.24 -26.42,31.286 -26.343,30.33C-26.268,29.375 -26.159,28.444 -26.017,27.538C-25.875,26.633 -25.667,25.712 -25.392,24.775C-25.119,23.839 -24.844,22.943 -24.571,22.087C-24.231,21.178 -23.908,20.321 -23.603,19.52C-23.297,18.719 -22.977,17.945 -22.639,17.197C-22.302,16.45 -21.965,15.717 -21.626,14.998C-21.291,14.279 -20.919,13.574 -20.518,12.882C-20.182,12.244 -19.831,11.633 -19.461,11.048C-19.095,10.464 -18.744,9.907 -18.408,9.377C-18.075,8.849 -17.724,8.358 -17.357,7.908C-16.992,7.458 -16.675,7.048 -16.407,6.678C-16.076,6.309 -15.809,5.992 -15.609,5.728C-15.41,5.465 -15.209,5.228 -15.011,5.016C-14.878,4.807 -14.71,4.596 -14.511,4.385C-14.314,4.383 -14.084,4.381 -13.82,4.378C-13.558,4.375 -13.226,4.372 -12.831,4.368C-12.436,4.364 -11.975,4.359 -11.447,4.354C-10.92,4.35 -10.408,4.345 -9.914,4.341C-9.42,4.336 -8.876,4.332 -8.283,4.328C-7.757,4.324 -7.196,4.32 -6.603,4.315C-6.009,4.312 -5.384,4.308 -4.724,4.304C-4.395,4.302 -4.048,4.3 -3.686,4.298C-3.323,4.296 -2.944,4.295 -2.548,4.293C-2.153,4.291 -1.774,4.29 -1.412,4.288C-1.05,4.287 -0.704,4.286 -0.373,4.285C-0.044,4.283 0.302,4.282 0.665,4.281C1.026,4.28 1.341,4.28 1.604,4.279C1.934,4.278 2.213,4.278 2.445,4.277C2.675,4.277 2.922,4.276 3.187,4.276C2.194,6.028 1.283,7.745 0.453,9.423C-0.378,11.103 -1.158,12.694 -1.891,14.197C-2.558,15.7 -3.159,17.139 -3.694,18.514C-4.23,19.891 -4.666,21.177 -5.002,22.371C-5.339,23.514 -5.643,24.631 -5.912,25.723C-6.184,26.815 -6.42,27.855 -6.624,28.842C-6.829,29.831 -6.966,30.779 -7.038,31.687C-7.108,32.594 -7.146,33.436 -7.149,34.212C-7.149,34.265 -7.15,34.317 -7.15,34.368C-7.15,34.42 -7.15,34.472 -7.151,34.523L-7.151,34.678C-7.152,34.73 -7.152,34.783 -7.152,34.833C-7.155,35.455 -7.144,36.05 -7.112,36.618C-7.082,37.187 -7.035,37.729 -6.971,38.244C-6.906,38.76 -6.825,39.236 -6.728,39.672C-6.63,40.109 -6.516,40.532 -6.384,40.941C-6.254,41.352 -6.122,41.748 -5.989,42.131C-5.858,42.515 -5.727,42.886 -5.595,43.243C-5.464,43.601 -5.315,43.932 -5.149,44.237C-4.984,44.542 -4.801,44.821 -4.602,45.073C-4.537,45.175 -4.469,45.289 -4.404,45.416C-4.338,45.543 -4.271,45.657 -4.205,45.758C-4.205,45.862 -4.173,45.964 -4.105,46.065C-4.041,46.167 -3.974,46.268 -3.907,46.369C-3.775,46.572 -3.642,46.748 -3.508,46.899C-3.375,47.05 -3.243,47.201 -3.109,47.352C-2.977,47.503 -2.86,47.654 -2.76,47.806C-2.66,47.958 -2.577,48.085 -2.511,48.187C-2.379,48.338 -2.296,48.464 -2.262,48.566C-2.229,48.669 -2.18,48.771 -2.112,48.872C-2.112,48.794 -2.112,48.717 -2.111,48.64C-1.374,47.897 -0.669,47.094 0,46.229" style="fill-rule:nonzero;"></path> </g> <g transform="matrix(1,0,0,1,450.052,305.676)"> <path d="M0,-61.389C10.12,-61.32 20.24,-61.227 30.356,-61.112C31.781,-49.294 33.213,-37.376 34.651,-25.347C36.661,-38.178 38.658,-51.202 40.646,-64.455C46.948,-64.43 53.251,-64.404 59.554,-64.376C59.556,-64.256 59.512,-63.943 59.422,-63.438C59.331,-62.932 59.194,-62.234 59.012,-61.345C58.83,-60.455 58.617,-59.329 58.377,-57.971C58.136,-56.611 57.866,-55.049 57.567,-53.285C57.268,-51.463 56.953,-49.617 56.624,-47.749C56.293,-45.88 55.947,-43.99 55.584,-42.078C55.402,-41.151 55.222,-40.181 55.041,-39.171C54.859,-38.159 54.681,-37.164 54.499,-36.186C54.252,-35.212 54.039,-34.21 53.858,-33.177C53.68,-32.143 53.499,-31.112 53.318,-30.082C52.894,-27.971 52.483,-25.925 52.09,-23.942C51.694,-21.959 51.318,-20.011 50.954,-18.096C50.593,-16.181 50.228,-14.329 49.862,-12.542C49.498,-10.754 49.164,-9.026 48.863,-7.353C48.563,-5.622 48.29,-4.122 48.049,-2.847C47.807,-1.573 47.594,-0.526 47.409,0.297C47.228,1.179 47.076,2.065 46.959,2.954C46.96,3.012 46.912,3.045 46.813,3.055C46.715,3.066 46.6,3.057 46.468,3.032C46.4,3.02 46.319,3.004 46.22,2.986C46.12,2.967 46.037,2.951 45.973,2.939C45.84,2.971 45.708,2.975 45.577,2.95C45.444,2.925 45.313,2.901 45.182,2.876C44.917,2.885 44.604,2.869 44.242,2.83C43.879,2.793 43.532,2.743 43.202,2.684C43.004,2.648 42.819,2.614 42.656,2.585C42.491,2.556 42.309,2.524 42.111,2.487C41.914,2.51 41.716,2.502 41.518,2.467C41.318,2.432 41.12,2.397 40.923,2.362C40.658,2.372 40.41,2.371 40.18,2.359C39.948,2.348 39.734,2.324 39.536,2.29C39.337,2.255 39.121,2.219 38.89,2.179C38.657,2.14 38.409,2.098 38.146,2.053C37.881,2.065 37.633,2.051 37.402,2.012C37.169,1.973 36.955,1.938 36.756,1.904C36.491,1.861 36.242,1.82 36.011,1.782C35.778,1.745 35.563,1.71 35.364,1.678C34.636,1.616 33.925,1.545 33.229,1.463C32.532,1.383 31.819,1.286 31.09,1.177C30.426,1.076 29.762,0.978 29.099,0.882C28.434,0.785 27.804,0.695 27.206,0.611C26.94,0.573 26.658,0.534 26.358,0.493C26.061,0.451 25.811,0.417 25.611,0.39C25.412,0.362 25.212,0.336 25.014,0.309C24.813,0.282 24.646,0.286 24.516,0.323C24.382,0.305 24.266,0.29 24.166,0.277C24.067,0.263 23.949,0.248 23.818,0.231C23.751,0.222 23.684,0.213 23.618,0.204C21.854,-12.161 20.1,-24.401 18.358,-36.533C15.74,-24.639 13.1,-12.913 10.432,-1.308C4.996,-1.84 -0.448,-2.26 -5.897,-2.568C-3.896,-22.067 -1.931,-41.658 0,-61.389" style="fill-rule:nonzero;"></path> </g> <g transform="matrix(1,0,0,1,527.862,290.449)"> <path d="M0,-7.049C-0.106,-7.265 -0.265,-7.62 -0.478,-8.116C-0.69,-8.678 -0.94,-9.328 -1.224,-10.063C-1.508,-10.798 -1.829,-11.685 -2.185,-12.722C-2.543,-13.693 -2.918,-14.711 -3.309,-15.778C-3.702,-16.843 -4.111,-17.924 -4.539,-19.019C-4.753,-19.566 -4.966,-20.128 -5.181,-20.706C-5.396,-21.283 -5.609,-21.843 -5.823,-22.386C-6.107,-23.001 -6.356,-23.593 -6.57,-24.166C-6.786,-24.738 -7,-25.327 -7.215,-25.93C-7.714,-27.075 -8.177,-28.197 -8.605,-29.295C-9.034,-30.394 -9.464,-31.471 -9.893,-32.528C-10.321,-33.585 -10.75,-34.606 -11.178,-35.591C-11.606,-36.575 -12,-37.554 -12.359,-38.528C-12.719,-39.438 -13.039,-40.248 -13.325,-40.96C-13.613,-41.671 -13.862,-42.251 -14.076,-42.703C-14.29,-43.153 -14.469,-43.572 -14.612,-43.957C-14.611,-43.893 -14.559,-43.844 -14.455,-43.81C-14.352,-43.776 -14.162,-43.757 -13.886,-43.751C-13.611,-43.745 -13.266,-43.737 -12.853,-43.728C-12.439,-43.719 -11.991,-43.71 -11.509,-43.699C-10.958,-43.687 -10.407,-43.675 -9.855,-43.662C-9.305,-43.65 -8.719,-43.637 -8.099,-43.623C-7.479,-43.609 -6.825,-43.594 -6.136,-43.578C-5.448,-43.563 -4.759,-43.579 -4.07,-43.629C-3.934,-43.626 -3.779,-43.622 -3.605,-43.618C-3.435,-43.614 -3.244,-43.61 -3.038,-43.605C-2.831,-43.6 -2.624,-43.595 -2.418,-43.591C-2.211,-43.586 -2.005,-43.581 -1.799,-43.576C-1.661,-43.573 -1.505,-43.57 -1.333,-43.565C-1.162,-43.561 -0.972,-43.557 -0.765,-43.552C-0.628,-43.549 -0.523,-43.546 -0.455,-43.545C-0.387,-43.543 -0.284,-43.54 -0.146,-43.537C-0.077,-43.535 0.01,-43.533 0.113,-43.531C0.217,-43.528 0.301,-43.527 0.371,-43.525C0.715,-43.517 1.077,-43.508 1.456,-43.499C1.834,-43.489 2.23,-43.48 2.644,-43.47C2.85,-43.465 3.057,-43.46 3.264,-43.455C3.469,-43.45 3.676,-43.445 3.883,-43.44C4.021,-43.436 4.192,-43.432 4.399,-43.427C4.606,-43.422 4.812,-43.417 5.019,-43.411C5.363,-43.403 5.725,-43.394 6.104,-43.384C6.481,-43.375 6.843,-43.366 7.187,-43.357C7.531,-43.348 7.893,-43.34 8.272,-43.33C8.649,-43.32 9.01,-43.311 9.355,-43.302C11.218,-37.217 13.073,-31.015 14.921,-24.687C18.774,-32.546 22.646,-40.748 26.546,-49.344C33.126,-49.356 39.708,-49.369 46.289,-49.384C37.985,-33.135 29.846,-18.536 21.766,-5.197C26.489,9.815 31.152,25.62 35.721,42.335C28.713,39.641 21.651,37.145 14.542,34.845C12.104,27.745 9.65,20.835 7.187,14.101C3.479,19.372 -0.227,24.435 -3.937,29.325C-9.237,27.935 -14.56,26.65 -19.9,25.469C-13.197,15.3 -6.526,4.584 0.155,-6.926C0.157,-6.792 0.105,-6.834 0,-7.049" style="fill-rule:nonzero;"></path> </g> <g transform="matrix(1,0,0,1,280.001,350.736)"> <path d="M0,-6.127L-1.867,-6.127C-1.867,-7.205 -2.091,-7.89 -2.538,-8.18C-2.985,-8.471 -4.039,-8.616 -5.698,-8.616C-7.667,-8.616 -8.936,-8.478 -9.505,-8.2C-10.074,-7.922 -10.359,-7.303 -10.359,-6.342C-10.359,-5.264 -10.136,-4.607 -9.688,-4.372C-9.241,-4.137 -7.911,-3.977 -5.698,-3.892C-3.104,-3.8 -1.454,-3.535 -0.751,-3.098C-0.047,-2.66 0.305,-1.68 0.305,-0.157C0.305,1.489 -0.1,2.555 -0.909,3.038C-1.719,3.521 -3.506,3.764 -6.271,3.764C-8.672,3.764 -10.268,3.52 -11.061,3.033C-11.854,2.547 -12.25,1.564 -12.25,0.088L-12.263,-0.51L-10.396,-0.51L-10.396,-0.177C-10.396,1.019 -10.168,1.763 -9.713,2.053C-9.257,2.344 -8.09,2.489 -6.211,2.489C-4.056,2.489 -2.729,2.344 -2.233,2.053C-1.737,1.763 -1.489,0.986 -1.489,-0.275C-1.489,-1.092 -1.658,-1.636 -1.995,-1.907C-2.333,-2.178 -3.038,-2.34 -4.112,-2.393L-6.064,-2.471L-7.919,-2.549C-10.741,-2.706 -12.152,-3.882 -12.152,-6.077C-12.152,-7.601 -11.742,-8.616 -10.921,-9.126C-10.099,-9.636 -8.46,-9.891 -6.003,-9.891C-3.515,-9.891 -1.892,-9.653 -1.135,-9.18C-0.379,-8.706 0,-7.689 0,-6.127" style="fill-rule:nonzero;"></path> </g> <g transform="matrix(1,0,0,1,285.591,354.362)"> <path d="M0,-13.379L0,-7.537L1.647,-7.537L8.48,-13.379L10.908,-13.379L3.295,-6.93L11.836,0L9.261,0L1.647,-6.263L0,-6.263L0,0L-1.879,0L-1.879,-13.379L0,-13.379Z" style="fill-rule:nonzero;"></path> </g> <g transform="matrix(1,0,0,1,309.618,344.954)"> <path d="M0,5.439L-3.696,-2.736L-7.345,5.439L0,5.439ZM0.55,6.577L-7.882,6.577L-9.163,9.409L-11.151,9.409L-5.051,-3.97L-2.415,-3.97L3.808,9.409L1.843,9.409L0.55,6.577Z" style="fill-rule:nonzero;"></path> </g> <g transform="matrix(1,0,0,1,322.09,352.962)"> <path d="M0,-10.577L0,1.401L-1.879,1.401L-1.879,-10.577L-7.309,-10.577L-7.309,-11.978L5.381,-11.978L5.381,-10.577L0,-10.577Z" style="fill-rule:nonzero;"></path> </g> <g transform="matrix(1,0,0,1,331.5,353.089)"> <path d="M0,-10.832L0,-6.273L8.456,-6.273L8.456,-4.999L0,-4.999L0,-0.001L8.821,-0.001L8.821,1.273L-1.879,1.273L-1.879,-12.105L8.821,-12.105L8.821,-10.832L0,-10.832Z" style="fill-rule:nonzero;"></path> </g> <g transform="matrix(1,0,0,1,355.308,350.736)"> <path d="M0,-6.127L-1.867,-6.127C-1.867,-7.205 -2.091,-7.89 -2.538,-8.18C-2.985,-8.471 -4.039,-8.616 -5.698,-8.616C-7.667,-8.616 -8.936,-8.478 -9.505,-8.2C-10.074,-7.922 -10.359,-7.303 -10.359,-6.342C-10.359,-5.264 -10.136,-4.607 -9.688,-4.372C-9.241,-4.137 -7.911,-3.977 -5.698,-3.892C-3.104,-3.8 -1.454,-3.535 -0.751,-3.098C-0.047,-2.66 0.305,-1.68 0.305,-0.157C0.305,1.489 -0.1,2.555 -0.909,3.038C-1.719,3.521 -3.506,3.764 -6.271,3.764C-8.672,3.764 -10.268,3.52 -11.061,3.033C-11.854,2.547 -12.25,1.564 -12.25,0.088L-12.263,-0.51L-10.396,-0.51L-10.396,-0.177C-10.396,1.019 -10.168,1.763 -9.713,2.053C-9.257,2.344 -8.09,2.489 -6.211,2.489C-4.056,2.489 -2.729,2.344 -2.233,2.053C-1.737,1.763 -1.489,0.986 -1.489,-0.275C-1.489,-1.092 -1.658,-1.636 -1.995,-1.907C-2.333,-2.178 -3.038,-2.34 -4.112,-2.393L-6.064,-2.471L-7.919,-2.549C-10.741,-2.706 -12.152,-3.882 -12.152,-6.077C-12.152,-7.601 -11.742,-8.616 -10.921,-9.126C-10.099,-9.636 -8.46,-9.891 -6.003,-9.891C-3.515,-9.891 -1.892,-9.653 -1.135,-9.18C-0.379,-8.706 0,-7.689 0,-6.127" style="fill-rule:nonzero;"></path> </g> <g transform="matrix(1,0,0,1,372.514,354.362)"> <path d="M0,-13.379L0,0L-1.879,0L-1.879,-6.204L-11.616,-6.204L-11.616,0L-13.495,0L-13.495,-13.379L-11.616,-13.379L-11.616,-7.479L-1.879,-7.479L-1.879,-13.379L0,-13.379Z" style="fill-rule:nonzero;"></path> </g> <g transform="matrix(1,0,0,1,382.899,353.226)"> <path d="M0,-11.106C-2.635,-11.106 -4.177,-10.871 -4.624,-10.4C-5.071,-9.93 -5.295,-8.316 -5.295,-5.558C-5.295,-2.794 -5.071,-1.177 -4.624,-0.707C-4.177,-0.236 -2.635,-0.001 0,-0.001C2.644,-0.001 4.189,-0.236 4.637,-0.707C5.084,-1.177 5.308,-2.794 5.308,-5.558L5.308,-6.43L5.296,-7.695C5.296,-9.171 4.986,-10.11 4.368,-10.508C3.75,-10.907 2.294,-11.106 0,-11.106M0.013,-12.38C3.16,-12.38 5.129,-12.011 5.918,-11.273C6.707,-10.534 7.102,-8.688 7.102,-5.735C7.102,-2.552 6.723,-0.588 5.967,0.157C5.21,0.901 3.226,1.274 0.013,1.274C-3.185,1.274 -5.167,0.905 -5.936,0.166C-6.704,-0.572 -7.089,-2.48 -7.089,-5.558L-7.089,-6.5L-7.064,-7.763C-7.064,-9.541 -6.566,-10.754 -5.569,-11.405C-4.573,-12.055 -2.713,-12.38 0.013,-12.38" style="fill-rule:nonzero;"></path> </g> <g transform="matrix(1,0,0,1,395.176,347.532)"> <path d="M0,0.283L4.454,0.283C6.316,0.283 7.51,0.13 8.035,-0.177C8.56,-0.485 8.822,-1.19 8.822,-2.294C8.822,-3.588 8.645,-4.406 8.291,-4.75C7.937,-5.093 7.098,-5.265 5.771,-5.265L5.052,-5.275L0,-5.275L0,0.283ZM-1.879,6.831L-1.879,-6.548L5.747,-6.548C7.626,-6.548 8.907,-6.258 9.591,-5.676C10.273,-5.094 10.615,-4.006 10.615,-2.412C10.615,-0.883 10.26,0.159 9.548,0.715C8.836,1.27 7.5,1.548 5.54,1.548L4.808,1.557L0,1.557L0,6.831L-1.879,6.831Z" style="fill-rule:nonzero;"></path> </g> <g transform="matrix(1,0,0,1,428.004,350.736)"> <path d="M0,-6.127L-1.867,-6.127C-1.867,-7.205 -2.091,-7.89 -2.538,-8.18C-2.985,-8.471 -4.039,-8.616 -5.698,-8.616C-7.667,-8.616 -8.936,-8.478 -9.505,-8.2C-10.075,-7.922 -10.36,-7.303 -10.36,-6.342C-10.36,-5.264 -10.136,-4.607 -9.689,-4.372C-9.242,-4.137 -7.912,-3.977 -5.698,-3.892C-3.104,-3.8 -1.454,-3.535 -0.751,-3.098C-0.047,-2.66 0.305,-1.68 0.305,-0.157C0.305,1.489 -0.1,2.555 -0.909,3.038C-1.719,3.521 -3.506,3.764 -6.272,3.764C-8.672,3.764 -10.268,3.52 -11.061,3.033C-11.854,2.547 -12.25,1.564 -12.25,0.088L-12.263,-0.51L-10.396,-0.51L-10.396,-0.177C-10.396,1.019 -10.168,1.763 -9.713,2.053C-9.257,2.344 -8.09,2.489 -6.211,2.489C-4.056,2.489 -2.729,2.344 -2.233,2.053C-1.737,1.763 -1.489,0.986 -1.489,-0.275C-1.489,-1.092 -1.658,-1.636 -1.995,-1.907C-2.333,-2.178 -3.038,-2.34 -4.112,-2.393L-6.065,-2.471L-7.919,-2.549C-10.742,-2.706 -12.153,-3.882 -12.153,-6.077C-12.153,-7.601 -11.743,-8.616 -10.921,-9.126C-10.099,-9.636 -8.46,-9.891 -6.003,-9.891C-3.515,-9.891 -1.892,-9.653 -1.135,-9.18C-0.379,-8.706 0,-7.689 0,-6.127" style="fill-rule:nonzero;"></path> </g> <g transform="matrix(1,0,0,1,441.402,344.954)"> <path d="M0,5.439L-3.696,-2.736L-7.345,5.439L0,5.439ZM0.55,6.577L-7.882,6.577L-9.163,9.409L-11.151,9.409L-5.051,-3.97L-2.415,-3.97L3.808,9.409L1.843,9.409L0.55,6.577Z" style="fill-rule:nonzero;"></path> </g> <g transform="matrix(1,0,0,1,457.754,344.954)"> <path d="M0,5.439L-3.696,-2.736L-7.345,5.439L0,5.439ZM0.55,6.577L-7.882,6.577L-9.163,9.409L-11.151,9.409L-5.051,-3.97L-2.415,-3.97L3.808,9.409L1.843,9.409L0.55,6.577Z" style="fill-rule:nonzero;"></path> </g> <g transform="matrix(1,0,0,1,466.298,354.362)"> <path d="M0,-13.379L0,-1.401L8.565,-1.401L8.565,0L-1.879,0L-1.879,-13.379L0,-13.379Z" style="fill-rule:nonzero;"></path> </g> <g transform="matrix(1,0,0,1,479.563,353.089)"> <path d="M0,-10.832L0,-6.156L8.114,-6.156L8.114,-4.882L0,-4.882L0,1.273L-1.879,1.273L-1.879,-12.105L8.334,-12.105L8.334,-10.832L0,-10.832Z" style="fill-rule:nonzero;"></path> </g> <g transform="matrix(1,0,0,1,492.255,353.089)"> <path d="M0,-10.832L0,-6.273L8.456,-6.273L8.456,-4.999L0,-4.999L0,-0.001L8.821,-0.001L8.821,1.273L-1.879,1.273L-1.879,-12.105L8.821,-12.105L8.821,-10.832L0,-10.832Z" style="fill-rule:nonzero;"></path> </g> <g transform="matrix(1,0,0,1,506.52,354.362)"> <path d="M0,-13.379L0,-1.401L8.565,-1.401L8.565,0L-1.879,0L-1.879,-13.379L0,-13.379Z" style="fill-rule:nonzero;"></path> </g> <g transform="matrix(1,0,0,1,519.786,342.258)"> <path d="M0,10.83L5.43,10.83C7.423,10.83 8.708,10.511 9.285,9.87C9.863,9.229 10.151,7.802 10.151,5.587C10.151,3.155 9.901,1.617 9.401,0.97C8.901,0.323 7.703,-0.001 5.808,-0.001L0,-0.001L0,10.83ZM-1.879,12.104L-1.879,-1.274L5.832,-1.274C8.216,-1.274 9.83,-0.854 10.677,-0.011C11.522,0.833 11.945,2.446 11.945,4.832C11.945,7.733 11.569,9.671 10.816,10.644C10.064,11.618 8.562,12.104 6.309,12.104L-1.879,12.104Z" style="fill-rule:nonzero;"></path> </g> <g transform="matrix(1,0,0,1,536.59,353.089)"> <path d="M0,-10.832L0,-6.273L8.456,-6.273L8.456,-4.999L0,-4.999L0,-0.001L8.821,-0.001L8.821,1.273L-1.879,1.273L-1.879,-12.105L8.821,-12.105L8.821,-10.832L0,-10.832Z" style="fill-rule:nonzero;"></path> </g> <g transform="matrix(1,0,0,1,563.203,354.362)"> <path d="M0,-13.379L0,0L-3.087,0L-10.065,-9.106L-11.2,-10.606L-11.762,-11.351L-12.323,-12.096L-12.372,-12.096L-12.359,-11.596L-12.348,-11.086L-12.348,0L-14.227,0L-14.227,-13.379L-11.151,-13.379L-5.063,-5.4L-3.478,-3.303L-2.684,-2.264L-1.903,-1.215L-1.854,-1.215L-1.866,-1.715L-1.879,-2.225L-1.879,-13.379L0,-13.379Z" style="fill-rule:nonzero;"></path> </g> </g> </svg> 